inDegrees=no
num_controls=7
num_derivatives=13
num_iterations=182
num_multipliers=7
num_parameters=0
num_slacks=7
num_states=26
objective=5.473224
objective_accelerations=0.617263
objective_balance=0.050244
objective_effort=0.507345
objective_height=4.257149
objective_ligament=0.041223
solver_duration=2179.262878
status=Solve_Succeeded
success=true
DataType=double
version=3
OpenSimVersion=4.4-2022-07-23-0e9fedc
endheader
time	/jointset/ground_pelvis/pelvis_tilt/value	/jointset/ground_pelvis/pelvis_tx/value	/jointset/ground_pelvis/pelvis_ty/value	/jointset/hip_l/hip_flexion_l/value	/jointset/hip_l/hip_adduction_l/value	/jointset/hip_l/hip_rotation_l/value	/jointset/back/lumbar_extension/value	/jointset/patellofemoral_l/patellar_flexion_l/value	/jointset/knee_l/knee_flexion_l/value	/jointset/knee_l/knee_adduction_l/value	/jointset/knee_l/knee_rotation_l/value	/jointset/ankle_l/ankle_angle_l/value	/jointset/subtalar_l/subtalar_angle_l/value	/jointset/ground_pelvis/pelvis_tilt/speed	/jointset/ground_pelvis/pelvis_tx/speed	/jointset/ground_pelvis/pelvis_ty/speed	/jointset/hip_l/hip_flexion_l/speed	/jointset/hip_l/hip_adduction_l/speed	/jointset/hip_l/hip_rotation_l/speed	/jointset/back/lumbar_extension/speed	/jointset/patellofemoral_l/patellar_flexion_l/speed	/jointset/knee_l/knee_flexion_l/speed	/jointset/knee_l/knee_adduction_l/speed	/jointset/knee_l/knee_rotation_l/speed	/jointset/ankle_l/ankle_angle_l/speed	/jointset/subtalar_l/subtalar_angle_l/speed	/forceset/tau_hip_flexion_l	/forceset/tau_hip_adduction_l	/forceset/tau_hip_rotation_l	/forceset/tau_knee_flexion_l	/forceset/tau_ankle_angle_l	/forceset/tau_subtalar_angle_l	/forceset/tau_lumbar_extension	lambda_cid13_p0	lambda_cid13_p1	lambda_cid13_p2	lambda_cid13_p3	lambda_cid13_p4	lambda_cid13_p5	lambda_cid14_p0	/jointset/ground_pelvis/pelvis_tilt/accel	/jointset/ground_pelvis/pelvis_tx/accel	/jointset/ground_pelvis/pelvis_ty/accel	/jointset/hip_l/hip_flexion_l/accel	/jointset/hip_l/hip_adduction_l/accel	/jointset/hip_l/hip_rotation_l/accel	/jointset/back/lumbar_extension/accel	/jointset/patellofemoral_l/patellar_flexion_l/accel	/jointset/knee_l/knee_flexion_l/accel	/jointset/knee_l/knee_adduction_l/accel	/jointset/knee_l/knee_rotation_l/accel	/jointset/ankle_l/ankle_angle_l/accel	/jointset/subtalar_l/subtalar_angle_l/accel	gamma_cid13_p0	gamma_cid13_p1	gamma_cid13_p2	gamma_cid13_p3	gamma_cid13_p4	gamma_cid13_p5	gamma_cid14_p0
1	-0.7613419473283634	-0.1899441844110323	0.5808264420067472	2.071774706044413	-0.3102409897911908	0.08419897034112524	-0.4363322599036191	1.079144110639652	1.079144110639665	-0.1745326197846762	0.1745328371421624	-0.05217217584272003	-0.07157562125692901	-0.01215323697398368	0.0002149505596617169	-0.00302877462733638	0.01737136758445419	0.0004143813494674849	0.00250604977489455	8.523187793857329e-07	0.006482798226703077	0.006482798226703094	4.24872387477283e-07	2.369196377632809e-08	0.001752773556514239	0.0006691204313231339	-0.4956737474586347	-0.009803866102711167	-0.01839637866009415	-0.2123816959049613	0.2418267018954162	0.03877591052387323	0.383902126365067	30.10786633458384	-21.73855010432474	2.636676990859721	-0.8055400492088788	-736.8584675260583	-46.36598450246234	-4.77456892208597	2.349349536150367	0.4763544698562294	1.75639812573392	-6.825085177235358	-0.2118762709717389	-1.521932733712967	-0.0202059603470387	-4.185835782834324	-4.185835782834319	-0.03166941059476376	0.01111641607859061	0.05771807188843708	-0.1467211248281758	1.897093986868704e-10	1.779781324015156e-09	-2.882606010960984e-09	7.667874985804907e-10	4.806907912868328e-10	-2.065194129457546e-09	8.223846930173872e-10
1.01	-0.761346966939619	-0.1899183151793165	0.580883849206541	2.071608293468923	-0.3102466625263138	0.0841474665283039	-0.4363322279890842	1.078999676919297	1.078999676919304	-0.1745326161264714	0.174532835720323	-0.05215169331957846	-0.07157549869808243	0.01115084600461159	0.004960029123183997	0.01450719792215487	-0.05064855160655275	-0.001547189253080268	-0.01280431908343234	3.972557962896972e-06	-0.03536480645040101	-0.03536480645040099	2.809104743291096e-07	-3.269364707190536e-07	0.002341877836633109	-0.0006433486471153883	-0.4955306396611986	-0.009765886315165109	-0.0184001821144588	-0.2123496948093787	0.2417760495692419	0.03879966101044571	0.3838126333577186	30.10133644658333	-21.74832911835502	2.63892982780797	-0.8203931181858801	-736.7229928895549	-46.38911717369471	-4.781365557753731	2.321166961878465	0.4737543493745423	1.751743646641819	-6.789646110637846	-0.188037458728898	-1.53521791702175	0.01033731103008712	-4.183511733323143	-4.183511733323145	0.01580797149402381	-0.005617078057818343	0.05922897589571195	-0.1233216203293002	-1.223077280082573e-09	-4.649450154416343e-09	1.302954938607532e-08	-9.881928975859819e-10	-3.328162135787157e-09	1.61621544810619e-08	-3.455291942666305e-09
1.02	-0.7611188998644559	-0.1898449612020105	0.5811165254972468	2.070761841537402	-0.3102718989682287	0.08394293323587307	-0.4363322116131336	1.078436909367535	1.078436909367538	-0.1745326149357892	0.1745328295370445	-0.0521253752796711	-0.07158846319421576	0.03446410030978099	0.009711899677680694	0.03202504355505689	-0.1186365036217379	-0.003498360008932142	-0.02809984614692721	-2.255403691393288e-06	-0.0771839680544926	-0.07718396805449258	-6.863209428472454e-08	-9.285950391765334e-07	0.002919876909635903	-0.001948290564658287	-0.4953875318637654	-0.009727906527619706	-0.01840398556882082	-0.2123176937137952	0.2417253972430681	0.03882341149701764	0.3837231403503664	30.09163009289134	-21.7589342136253	2.642893499538516	-0.8504853664492632	-736.6430444504738	-46.39329989616083	-4.80783665715554	2.351183801465189	0.4777128680511156	1.752772742416076	-6.818691742070996	-0.2097963016325642	-1.518964374746568	-0.0220756005146225	-4.180147168231825	-4.180147168231821	-0.03171052672585634	0.01106621005180191	0.05549703046522651	-0.1452156926490513	-2.665356564040049e-09	-1.102104159862392e-08	2.850122425123663e-08	-2.584062571682246e-09	-7.110585675766171e-09	3.391983330163595e-08	-7.636661885343894e-09
1.03	-0.7606576843058606	-0.189724032376055	0.5815242191527615	2.069235838828213	-0.3103165621540729	0.08358556693867576	-0.4363322675076071	1.077456179163955	1.077456179163945	-0.174532628889617	0.1745328230546395	-0.05209338279289548	-0.07161441829075435	0.05777695169210437	0.01447713895753197	0.04950361876580955	-0.1865412706643602	-0.005428402561412145	-0.04336676944718534	-6.166832027375442e-06	-0.1189487411952157	-0.1189487411952158	-1.983167681335586e-06	-2.469863534259465e-07	0.003471976040161844	-0.003238495136150332	-0.4948214512641131	-0.009636133366629742	-0.0184243212644341	-0.212307437875257	0.2416835513347509	0.03889963655476143	0.3833867846062975	30.10542800292875	-21.79806361967231	2.653253955232368	-0.9154299073824343	-736.2578889080964	-46.46611542918966	-4.854169482757214	2.321025419130083	0.4764196292482744	1.743887391623057	-6.772955720061308	-0.1837301420297557	-1.529569692854581	0.01086458570444237	-4.17264027833432	-4.172640278334333	0.01567462552498311	-0.005424325958908237	0.05407085619089087	-0.1202903040334632	-4.107936792948423e-09	-1.739204487921698e-08	4.396840441709309e-08	-4.178308666981875e-09	-1.089273952812177e-08	5.167271957333301e-08	-1.181704910666428e-08
